<svg xmlns="http://www.w3.org/2000/svg" xmlns:xlink="http://www.w3.org/1999/xlink" viewBox="0 0 272.07 272.07"><defs><style>.cls-1{fill:url(#Mosaikko);}</style><linearGradient id="Mosaikko" x1="-7.42" y1="229.2" x2="279.49" y2="42.87" gradientUnits="userSpaceOnUse"><stop offset="0" stop-color="#ff66c8"/><stop offset="0.07" stop-color="#ff6fbd"/><stop offset="0.19" stop-color="#ff889e"/><stop offset="0.36" stop-color="#ffb16c"/><stop offset="0.52" stop-color="#ffdf34"/><stop offset="0.58" stop-color="#eedd4b"/><stop offset="0.7" stop-color="#c1d787"/><stop offset="0.88" stop-color="#79cee6"/><stop offset="0.92" stop-color="#6cf"/></linearGradient></defs><g id="Capa_2" data-name="Capa 2"><g id="Capa_1-2" data-name="Capa 1"><rect class="cls-1" width="272.07" height="272.07" rx="44.69"/><path d="M9.6,136.54v-1.16c0-31.61,23.78-52.78,54.81-52.78,31.61,0,55,19.87,55,52.06v1.16c0,31.9-21.89,53.65-55.39,53.65S9.6,167.72,9.6,136.54Zm78.73-.29v-1.16c0-18.41-9.28-29.29-23.92-29.29s-23.78,10.59-23.78,29.44v1.16c0,18.85,9.57,29.72,23.92,29.72C79.2,166.12,88.33,154.81,88.33,136.25Z"/><path d="M131.92,84.05h29.87v41l31.17-41h31l-38,48.14,40,55.54H191.66l-29.87-43.36v43.36H131.92Z"/><path d="M231.59,175c0-8,6.81-14.5,15.37-14.5S262.47,167,262.47,175s-7,14.35-15.51,14.35S231.59,182.94,231.59,175Zm.72-90.92H261.6l-3.91,69.6H236.23Z"/></g></g></svg>